<svg xmlns="http://www.w3.org/2000/svg" xmlns:xlink="http://www.w3.org/1999/xlink" width="584" zoomAndPan="magnify" viewBox="0 0 438 167.249994" height="223" preserveAspectRatio="xMidYMid meet" version="1.0"><defs><g/><clipPath id="75d48ce7fb"><path d="M 0.976562 0 L 437.019531 0 L 437.019531 166.503906 L 0.976562 166.503906 Z M 0.976562 0 " clip-rule="nonzero"/></clipPath><clipPath id="08b343d4be"><path d="M 303.722656 30.265625 L 354.25 30.265625 L 354.25 135.542969 L 303.722656 135.542969 Z M 303.722656 30.265625 " clip-rule="nonzero"/></clipPath><clipPath id="33fada4b1c"><path d="M 354.25 47.4375 L 354.25 118.367188 C 354.25 127.851562 346.5625 135.542969 337.078125 135.542969 L 320.898438 135.542969 C 311.414062 135.542969 303.722656 127.851562 303.722656 118.367188 L 303.722656 47.4375 C 303.722656 37.953125 311.414062 30.265625 320.898438 30.265625 L 337.078125 30.265625 C 346.5625 30.265625 354.25 37.953125 354.25 47.4375 Z M 354.25 47.4375 " clip-rule="nonzero"/></clipPath><clipPath id="6f8a87d274"><path d="M 318.582031 55.597656 L 419.335938 55.597656 L 419.335938 78.503906 L 318.582031 78.503906 Z M 318.582031 55.597656 " clip-rule="nonzero"/></clipPath><clipPath id="97bab8ca34"><path d="M 330.035156 55.597656 L 407.882812 55.597656 C 414.210938 55.597656 419.335938 60.722656 419.335938 67.050781 C 419.335938 73.375 414.210938 78.503906 407.882812 78.503906 L 330.035156 78.503906 C 323.707031 78.503906 318.582031 73.375 318.582031 67.050781 C 318.582031 60.722656 323.707031 55.597656 330.035156 55.597656 Z M 330.035156 55.597656 " clip-rule="nonzero"/></clipPath><clipPath id="e4b1b4b202"><path d="M 303.726562 20.039062 L 413.125 20.039062 L 413.125 42.921875 L 303.726562 42.921875 Z M 303.726562 20.039062 " clip-rule="nonzero"/></clipPath><clipPath id="75e68ea80c"><path d="M 315.167969 20.039062 L 401.683594 20.039062 C 408.003906 20.039062 413.125 25.164062 413.125 31.480469 C 413.125 37.800781 408.003906 42.921875 401.683594 42.921875 L 315.167969 42.921875 C 308.851562 42.921875 303.726562 37.800781 303.726562 31.480469 C 303.726562 25.164062 308.851562 20.039062 315.167969 20.039062 Z M 315.167969 20.039062 " clip-rule="nonzero"/></clipPath><clipPath id="eaa584f6e1"><path d="M 303.726562 36.660156 L 436.453125 36.660156 L 436.453125 59.730469 L 303.726562 59.730469 Z M 303.726562 36.660156 " clip-rule="nonzero"/></clipPath><clipPath id="b182bedfd8"><path d="M 315.261719 36.660156 L 424.917969 36.660156 C 431.285156 36.660156 436.453125 41.824219 436.453125 48.195312 C 436.453125 54.566406 431.285156 59.730469 424.917969 59.730469 L 315.261719 59.730469 C 308.890625 59.730469 303.726562 54.566406 303.726562 48.195312 C 303.726562 41.824219 308.890625 36.660156 315.261719 36.660156 Z M 315.261719 36.660156 " clip-rule="nonzero"/></clipPath><clipPath id="0e14e90679"><path d="M 329.390625 51.714844 L 345.964844 51.714844 L 345.964844 62.496094 L 329.390625 62.496094 Z M 329.390625 51.714844 " clip-rule="nonzero"/></clipPath><clipPath id="66b7835bf6"><path d="M 334.78125 51.714844 L 340.574219 51.714844 C 342.003906 51.714844 343.375 52.28125 344.386719 53.292969 C 345.398438 54.304688 345.964844 55.675781 345.964844 57.105469 C 345.964844 58.535156 345.398438 59.90625 344.386719 60.917969 C 343.375 61.929688 342.003906 62.496094 340.574219 62.496094 L 334.78125 62.496094 C 333.351562 62.496094 331.980469 61.929688 330.96875 60.917969 C 329.957031 59.90625 329.390625 58.535156 329.390625 57.105469 C 329.390625 55.675781 329.957031 54.304688 330.96875 53.292969 C 331.980469 52.28125 333.351562 51.714844 334.78125 51.714844 Z M 334.78125 51.714844 " clip-rule="nonzero"/></clipPath><clipPath id="27712c48ba"><path d="M 317.972656 31.269531 L 334.546875 31.269531 L 334.546875 42.050781 L 317.972656 42.050781 Z M 317.972656 31.269531 " clip-rule="nonzero"/></clipPath><clipPath id="b8745b2621"><path d="M 323.363281 31.269531 L 329.15625 31.269531 C 330.585938 31.269531 331.957031 31.835938 332.96875 32.847656 C 333.980469 33.859375 334.546875 35.230469 334.546875 36.660156 C 334.546875 38.089844 333.980469 39.460938 332.96875 40.472656 C 331.957031 41.484375 330.585938 42.050781 329.15625 42.050781 L 323.363281 42.050781 C 321.933594 42.050781 320.5625 41.484375 319.550781 40.472656 C 318.539062 39.460938 317.972656 38.089844 317.972656 36.660156 C 317.972656 35.230469 318.539062 33.859375 319.550781 32.847656 C 320.5625 31.835938 321.933594 31.269531 323.363281 31.269531 Z M 323.363281 31.269531 " clip-rule="nonzero"/></clipPath><clipPath id="240ad6f278"><path d="M 329.390625 111.738281 L 373.59375 111.738281 L 373.59375 135.222656 L 329.390625 135.222656 Z M 329.390625 111.738281 " clip-rule="nonzero"/></clipPath><clipPath id="1b6413a96b"><path d="M 341.132812 111.738281 L 361.851562 111.738281 C 364.964844 111.738281 367.953125 112.976562 370.15625 115.179688 C 372.359375 117.378906 373.59375 120.367188 373.59375 123.480469 C 373.59375 126.597656 372.359375 129.582031 370.15625 131.785156 C 367.953125 133.988281 364.964844 135.222656 361.851562 135.222656 L 341.132812 135.222656 C 338.015625 135.222656 335.03125 133.988281 332.828125 131.785156 C 330.625 129.582031 329.390625 126.597656 329.390625 123.480469 C 329.390625 120.367188 330.625 117.378906 332.828125 115.179688 C 335.03125 112.976562 338.015625 111.738281 341.132812 111.738281 Z M 341.132812 111.738281 " clip-rule="nonzero"/></clipPath><clipPath id="6dd40ef904"><path d="M 318.582031 74.152344 L 404.78125 74.152344 L 404.78125 96.492188 L 318.582031 96.492188 Z M 318.582031 74.152344 " clip-rule="nonzero"/></clipPath><clipPath id="657a6e183e"><path d="M 329.75 74.152344 L 393.613281 74.152344 C 396.574219 74.152344 399.417969 75.328125 401.511719 77.425781 C 403.605469 79.519531 404.78125 82.359375 404.78125 85.320312 C 404.78125 88.285156 403.605469 91.125 401.511719 93.21875 C 399.417969 95.3125 396.574219 96.492188 393.613281 96.492188 L 329.75 96.492188 C 326.789062 96.492188 323.945312 95.3125 321.851562 93.21875 C 319.757812 91.125 318.582031 88.285156 318.582031 85.320312 C 318.582031 82.359375 319.757812 79.519531 321.851562 77.425781 C 323.945312 75.328125 326.789062 74.152344 329.75 74.152344 Z M 329.75 74.152344 " clip-rule="nonzero"/></clipPath><clipPath id="0cee8c37db"><path d="M 318.582031 92.089844 L 404.78125 92.089844 L 404.78125 116.402344 L 318.582031 116.402344 Z M 318.582031 92.089844 " clip-rule="nonzero"/></clipPath><clipPath id="33522f385a"><path d="M 330.738281 92.089844 L 392.625 92.089844 C 399.339844 92.089844 404.78125 97.535156 404.78125 104.246094 C 404.78125 110.960938 399.339844 116.402344 392.625 116.402344 L 330.738281 116.402344 C 324.023438 116.402344 318.582031 110.960938 318.582031 104.246094 C 318.582031 97.535156 324.023438 92.089844 330.738281 92.089844 Z M 330.738281 92.089844 " clip-rule="nonzero"/></clipPath><clipPath id="f85331d28c"><path d="M 337.675781 110.480469 L 354.253906 110.480469 L 354.253906 121.261719 L 337.675781 121.261719 Z M 337.675781 110.480469 " clip-rule="nonzero"/></clipPath><clipPath id="7abde2a7ae"><path d="M 343.070312 110.480469 L 348.863281 110.480469 C 350.292969 110.480469 351.664062 111.046875 352.675781 112.058594 C 353.6875 113.070312 354.253906 114.441406 354.253906 115.871094 C 354.253906 117.300781 353.6875 118.671875 352.675781 119.683594 C 351.664062 120.695312 350.292969 121.261719 348.863281 121.261719 L 343.070312 121.261719 C 341.640625 121.261719 340.269531 120.695312 339.257812 119.683594 C 338.246094 118.671875 337.675781 117.300781 337.675781 115.871094 C 337.675781 114.441406 338.246094 113.070312 339.257812 112.058594 C 340.269531 111.046875 341.640625 110.480469 343.070312 110.480469 Z M 343.070312 110.480469 " clip-rule="nonzero"/></clipPath><clipPath id="2d7a4fcffb"><path d="M 337.675781 90.566406 L 354.253906 90.566406 L 354.253906 101.347656 L 337.675781 101.347656 Z M 337.675781 90.566406 " clip-rule="nonzero"/></clipPath><clipPath id="706bc37147"><path d="M 343.070312 90.566406 L 348.863281 90.566406 C 350.292969 90.566406 351.664062 91.132812 352.675781 92.144531 C 353.6875 93.15625 354.253906 94.527344 354.253906 95.957031 C 354.253906 97.386719 353.6875 98.757812 352.675781 99.769531 C 351.664062 100.78125 350.292969 101.347656 348.863281 101.347656 L 343.070312 101.347656 C 341.640625 101.347656 340.269531 100.78125 339.257812 99.769531 C 338.246094 98.757812 337.675781 97.386719 337.675781 95.957031 C 337.675781 94.527344 338.246094 93.15625 339.257812 92.144531 C 340.269531 91.132812 341.640625 90.566406 343.070312 90.566406 Z M 343.070312 90.566406 " clip-rule="nonzero"/></clipPath><clipPath id="71e0d7d259"><path d="M 337.675781 70.121094 L 354.253906 70.121094 L 354.253906 80.902344 L 337.675781 80.902344 Z M 337.675781 70.121094 " clip-rule="nonzero"/></clipPath><clipPath id="a42119172d"><path d="M 343.070312 70.121094 L 348.863281 70.121094 C 350.292969 70.121094 351.664062 70.6875 352.675781 71.699219 C 353.6875 72.710938 354.253906 74.082031 354.253906 75.511719 C 354.253906 76.941406 353.6875 78.3125 352.675781 79.324219 C 351.664062 80.335938 350.292969 80.902344 348.863281 80.902344 L 343.070312 80.902344 C 341.640625 80.902344 340.269531 80.335938 339.257812 79.324219 C 338.246094 78.3125 337.675781 76.941406 337.675781 75.511719 C 337.675781 74.082031 338.246094 72.710938 339.257812 71.699219 C 340.269531 70.6875 341.640625 70.121094 343.070312 70.121094 Z M 343.070312 70.121094 " clip-rule="nonzero"/></clipPath><clipPath id="cebeebe3ca"><path d="M 307.390625 32.269531 L 355.503906 32.269531 L 355.503906 132.519531 L 307.390625 132.519531 Z M 307.390625 32.269531 " clip-rule="nonzero"/></clipPath><clipPath id="08d2990a14"><path d="M 355.503906 49.441406 L 355.503906 115.34375 C 355.503906 124.828125 347.816406 132.519531 338.332031 132.519531 L 324.5625 132.519531 C 315.078125 132.519531 307.390625 124.828125 307.390625 115.34375 L 307.390625 49.441406 C 307.390625 39.957031 315.078125 32.269531 324.5625 32.269531 L 338.332031 32.269531 C 347.816406 32.269531 355.503906 39.957031 355.503906 49.441406 Z M 355.503906 49.441406 " clip-rule="nonzero"/></clipPath><clipPath id="9cc9056ea3"><path d="M 321.546875 56.390625 L 415.816406 56.390625 L 415.816406 75.863281 L 321.546875 75.863281 Z M 321.546875 56.390625 " clip-rule="nonzero"/></clipPath><clipPath id="1b525ee92a"><path d="M 331.28125 56.390625 L 406.078125 56.390625 C 411.457031 56.390625 415.816406 60.75 415.816406 66.128906 C 415.816406 71.503906 411.457031 75.863281 406.078125 75.863281 L 331.28125 75.863281 C 325.90625 75.863281 321.546875 71.503906 321.546875 66.128906 C 321.546875 60.75 325.90625 56.390625 331.28125 56.390625 Z M 331.28125 56.390625 " clip-rule="nonzero"/></clipPath><clipPath id="57f7d2dfce"><path d="M 307.402344 22.535156 L 410.179688 22.535156 L 410.179688 42.003906 L 307.402344 42.003906 Z M 307.402344 22.535156 " clip-rule="nonzero"/></clipPath><clipPath id="5716668889"><path d="M 317.136719 22.535156 L 400.441406 22.535156 C 405.820312 22.535156 410.179688 26.894531 410.179688 32.269531 C 410.179688 37.644531 405.820312 42.003906 400.441406 42.003906 L 317.136719 42.003906 C 311.761719 42.003906 307.402344 37.644531 307.402344 32.269531 C 307.402344 26.894531 311.761719 22.535156 317.136719 22.535156 Z M 317.136719 22.535156 " clip-rule="nonzero"/></clipPath><clipPath id="0163ba0d5b"><path d="M 307.402344 38.359375 L 433.789062 38.359375 L 433.789062 57.828125 L 307.402344 57.828125 Z M 307.402344 38.359375 " clip-rule="nonzero"/></clipPath><clipPath id="ad786ec18c"><path d="M 317.136719 38.359375 L 424.050781 38.359375 C 429.429688 38.359375 433.789062 42.71875 433.789062 48.09375 C 433.789062 53.472656 429.429688 57.828125 424.050781 57.828125 L 317.136719 57.828125 C 311.761719 57.828125 307.402344 53.472656 307.402344 48.09375 C 307.402344 42.71875 311.761719 38.359375 317.136719 38.359375 Z M 317.136719 38.359375 " clip-rule="nonzero"/></clipPath><clipPath id="44079557b9"><path d="M 331.839844 52.695312 L 347.625 52.695312 L 347.625 62.964844 L 331.839844 62.964844 Z M 331.839844 52.695312 " clip-rule="nonzero"/></clipPath><clipPath id="13fe6549ec"><path d="M 336.972656 52.695312 L 342.488281 52.695312 C 343.851562 52.695312 345.15625 53.238281 346.121094 54.199219 C 347.082031 55.164062 347.625 56.46875 347.625 57.828125 C 347.625 59.191406 347.082031 60.496094 346.121094 61.460938 C 345.15625 62.421875 343.851562 62.964844 342.488281 62.964844 L 336.972656 62.964844 C 335.609375 62.964844 334.304688 62.421875 333.34375 61.460938 C 332.378906 60.496094 331.839844 59.191406 331.839844 57.828125 C 331.839844 56.46875 332.378906 55.164062 333.34375 54.199219 C 334.304688 53.238281 335.609375 52.695312 336.972656 52.695312 Z M 336.972656 52.695312 " clip-rule="nonzero"/></clipPath><clipPath id="2219f80a56"><path d="M 320.964844 33.226562 L 336.75 33.226562 L 336.75 43.492188 L 320.964844 43.492188 Z M 320.964844 33.226562 " clip-rule="nonzero"/></clipPath><clipPath id="317240306a"><path d="M 326.101562 33.226562 L 331.617188 33.226562 C 332.980469 33.226562 334.285156 33.765625 335.246094 34.730469 C 336.210938 35.691406 336.75 36.996094 336.75 38.359375 C 336.75 39.722656 336.210938 41.027344 335.246094 41.988281 C 334.285156 42.953125 332.980469 43.492188 331.617188 43.492188 L 326.101562 43.492188 C 324.738281 43.492188 323.433594 42.953125 322.46875 41.988281 C 321.507812 41.027344 320.964844 39.722656 320.964844 38.359375 C 320.964844 36.996094 321.507812 35.691406 322.46875 34.730469 C 323.433594 33.765625 324.738281 33.226562 326.101562 33.226562 Z M 326.101562 33.226562 " clip-rule="nonzero"/></clipPath><clipPath id="0b133cda69"><path d="M 331.839844 112.746094 L 369.742188 112.746094 L 369.742188 132.21875 L 331.839844 132.21875 Z M 331.839844 112.746094 " clip-rule="nonzero"/></clipPath><clipPath id="1ee82d67a4"><path d="M 341.574219 112.746094 L 360.007812 112.746094 C 365.382812 112.746094 369.742188 117.105469 369.742188 122.480469 C 369.742188 127.859375 365.382812 132.21875 360.007812 132.21875 L 341.574219 132.21875 C 336.195312 132.21875 331.839844 127.859375 331.839844 122.480469 C 331.839844 117.105469 336.195312 112.746094 341.574219 112.746094 Z M 341.574219 112.746094 " clip-rule="nonzero"/></clipPath><clipPath id="b15f2296c2"><path d="M 321.546875 75.863281 L 400.558594 75.863281 L 400.558594 95.332031 L 321.546875 95.332031 Z M 321.546875 75.863281 " clip-rule="nonzero"/></clipPath><clipPath id="c3d2e44377"><path d="M 331.28125 75.863281 L 390.824219 75.863281 C 396.199219 75.863281 400.558594 80.222656 400.558594 85.597656 C 400.558594 90.972656 396.199219 95.332031 390.824219 95.332031 L 331.28125 95.332031 C 325.90625 95.332031 321.546875 90.972656 321.546875 85.597656 C 321.546875 80.222656 325.90625 75.863281 331.28125 75.863281 Z M 331.28125 75.863281 " clip-rule="nonzero"/></clipPath><clipPath id="3ea91fa923"><path d="M 321.546875 94.824219 L 400.558594 94.824219 L 400.558594 114.296875 L 321.546875 114.296875 Z M 321.546875 94.824219 " clip-rule="nonzero"/></clipPath><clipPath id="0e72363f9f"><path d="M 331.28125 94.824219 L 390.824219 94.824219 C 396.199219 94.824219 400.558594 99.183594 400.558594 104.5625 C 400.558594 109.9375 396.199219 114.296875 390.824219 114.296875 L 331.28125 114.296875 C 325.90625 114.296875 321.546875 109.9375 321.546875 104.5625 C 321.546875 99.183594 325.90625 94.824219 331.28125 94.824219 Z M 331.28125 94.824219 " clip-rule="nonzero"/></clipPath><clipPath id="a3fb662106"><path d="M 339.730469 108.65625 L 355.515625 108.65625 L 355.515625 118.921875 L 339.730469 118.921875 Z M 339.730469 108.65625 " clip-rule="nonzero"/></clipPath><clipPath id="1bdb9df383"><path d="M 344.863281 108.65625 L 350.382812 108.65625 C 351.742188 108.65625 353.050781 109.195312 354.011719 110.160156 C 354.976562 111.121094 355.515625 112.425781 355.515625 113.789062 C 355.515625 115.148438 354.976562 116.457031 354.011719 117.417969 C 353.050781 118.382812 351.742188 118.921875 350.382812 118.921875 L 344.863281 118.921875 C 343.503906 118.921875 342.199219 118.382812 341.234375 117.417969 C 340.273438 116.457031 339.730469 115.148438 339.730469 113.789062 C 339.730469 112.425781 340.273438 111.121094 341.234375 110.160156 C 342.199219 109.195312 343.503906 108.65625 344.863281 108.65625 Z M 344.863281 108.65625 " clip-rule="nonzero"/></clipPath><clipPath id="a4706cf3f5"><path d="M 339.730469 89.691406 L 355.515625 89.691406 L 355.515625 99.960938 L 339.730469 99.960938 Z M 339.730469 89.691406 " clip-rule="nonzero"/></clipPath><clipPath id="b76c886e07"><path d="M 344.863281 89.691406 L 350.382812 89.691406 C 351.742188 89.691406 353.050781 90.230469 354.011719 91.195312 C 354.976562 92.15625 355.515625 93.464844 355.515625 94.824219 C 355.515625 96.1875 354.976562 97.492188 354.011719 98.457031 C 353.050781 99.417969 351.742188 99.960938 350.382812 99.960938 L 344.863281 99.960938 C 343.503906 99.960938 342.199219 99.417969 341.234375 98.457031 C 340.273438 97.492188 339.730469 96.1875 339.730469 94.824219 C 339.730469 93.464844 340.273438 92.15625 341.234375 91.195312 C 342.199219 90.230469 343.503906 89.691406 344.863281 89.691406 Z M 344.863281 89.691406 " clip-rule="nonzero"/></clipPath><clipPath id="0ba75b7922"><path d="M 339.730469 70.222656 L 355.515625 70.222656 L 355.515625 80.488281 L 339.730469 80.488281 Z M 339.730469 70.222656 " clip-rule="nonzero"/></clipPath><clipPath id="112de7e5db"><path d="M 344.863281 70.222656 L 350.382812 70.222656 C 351.742188 70.222656 353.050781 70.761719 354.011719 71.726562 C 354.976562 72.6875 355.515625 73.992188 355.515625 75.355469 C 355.515625 76.714844 354.976562 78.023438 354.011719 78.984375 C 353.050781 79.949219 351.742188 80.488281 350.382812 80.488281 L 344.863281 80.488281 C 343.503906 80.488281 342.199219 79.949219 341.234375 78.984375 C 340.273438 78.023438 339.730469 76.714844 339.730469 75.355469 C 339.730469 73.992188 340.273438 72.6875 341.234375 71.726562 C 342.199219 70.761719 343.503906 70.222656 344.863281 70.222656 Z M 344.863281 70.222656 " clip-rule="nonzero"/></clipPath><clipPath id="9ef6346649"><path d="M 156 24 L 352 24 L 352 166.503906 L 156 166.503906 Z M 156 24 " clip-rule="nonzero"/></clipPath></defs><g clip-path="url(#75d48ce7fb)"><path fill="#ffffff" d="M 0.976562 0 L 437.023438 0 L 437.023438 166.503906 L 0.976562 166.503906 Z M 0.976562 0 " fill-opacity="1" fill-rule="nonzero"/></g><g clip-path="url(#08b343d4be)"><g clip-path="url(#33fada4b1c)"><path fill="#ffffff" d="M 354.25 30.265625 L 354.25 135.542969 L 303.722656 135.542969 L 303.722656 30.265625 Z M 354.25 30.265625 " fill-opacity="1" fill-rule="nonzero"/></g></g><g clip-path="url(#6f8a87d274)"><g clip-path="url(#97bab8ca34)"><path fill="#ffffff" d="M 318.582031 55.597656 L 419.335938 55.597656 L 419.335938 78.503906 L 318.582031 78.503906 Z M 318.582031 55.597656 " fill-opacity="1" fill-rule="nonzero"/></g></g><g clip-path="url(#e4b1b4b202)"><g clip-path="url(#75e68ea80c)"><path fill="#ffffff" d="M 303.726562 20.039062 L 413.125 20.039062 L 413.125 42.921875 L 303.726562 42.921875 Z M 303.726562 20.039062 " fill-opacity="1" fill-rule="nonzero"/></g></g><g clip-path="url(#eaa584f6e1)"><g clip-path="url(#b182bedfd8)"><path fill="#ffffff" d="M 303.726562 36.660156 L 436.453125 36.660156 L 436.453125 59.730469 L 303.726562 59.730469 Z M 303.726562 36.660156 " fill-opacity="1" fill-rule="nonzero"/></g></g><g clip-path="url(#0e14e90679)"><g clip-path="url(#66b7835bf6)"><path fill="#ffffff" d="M 329.390625 51.714844 L 345.964844 51.714844 L 345.964844 62.496094 L 329.390625 62.496094 Z M 329.390625 51.714844 " fill-opacity="1" fill-rule="nonzero"/></g></g><g clip-path="url(#27712c48ba)"><g clip-path="url(#b8745b2621)"><path fill="#ffffff" d="M 317.972656 31.269531 L 334.546875 31.269531 L 334.546875 42.050781 L 317.972656 42.050781 Z M 317.972656 31.269531 " fill-opacity="1" fill-rule="nonzero"/></g></g><g clip-path="url(#240ad6f278)"><g clip-path="url(#1b6413a96b)"><path fill="#ffffff" d="M 329.390625 111.738281 L 373.59375 111.738281 L 373.59375 135.222656 L 329.390625 135.222656 Z M 329.390625 111.738281 " fill-opacity="1" fill-rule="nonzero"/></g></g><g clip-path="url(#6dd40ef904)"><g clip-path="url(#657a6e183e)"><path fill="#ffffff" d="M 318.582031 74.152344 L 404.78125 74.152344 L 404.78125 96.492188 L 318.582031 96.492188 Z M 318.582031 74.152344 " fill-opacity="1" fill-rule="nonzero"/></g></g><g clip-path="url(#0cee8c37db)"><g clip-path="url(#33522f385a)"><path fill="#ffffff" d="M 318.582031 92.089844 L 404.78125 92.089844 L 404.78125 116.402344 L 318.582031 116.402344 Z M 318.582031 92.089844 " fill-opacity="1" fill-rule="nonzero"/></g></g><g clip-path="url(#f85331d28c)"><g clip-path="url(#7abde2a7ae)"><path fill="#ffffff" d="M 337.675781 110.480469 L 354.253906 110.480469 L 354.253906 121.261719 L 337.675781 121.261719 Z M 337.675781 110.480469 " fill-opacity="1" fill-rule="nonzero"/></g></g><g clip-path="url(#2d7a4fcffb)"><g clip-path="url(#706bc37147)"><path fill="#ffffff" d="M 337.675781 90.566406 L 354.253906 90.566406 L 354.253906 101.347656 L 337.675781 101.347656 Z M 337.675781 90.566406 " fill-opacity="1" fill-rule="nonzero"/></g></g><g clip-path="url(#71e0d7d259)"><g clip-path="url(#a42119172d)"><path fill="#ffffff" d="M 337.675781 70.121094 L 354.253906 70.121094 L 354.253906 80.902344 L 337.675781 80.902344 Z M 337.675781 70.121094 " fill-opacity="1" fill-rule="nonzero"/></g></g><g clip-path="url(#cebeebe3ca)"><g clip-path="url(#08d2990a14)"><path fill="#00bf63" d="M 355.503906 32.269531 L 355.503906 132.519531 L 307.390625 132.519531 L 307.390625 32.269531 Z M 355.503906 32.269531 " fill-opacity="1" fill-rule="nonzero"/></g></g><g clip-path="url(#9cc9056ea3)"><g clip-path="url(#1b525ee92a)"><path fill="#ff66c4" d="M 321.546875 56.390625 L 415.816406 56.390625 L 415.816406 75.863281 L 321.546875 75.863281 Z M 321.546875 56.390625 " fill-opacity="1" fill-rule="nonzero"/></g></g><g clip-path="url(#57f7d2dfce)"><g clip-path="url(#5716668889)"><path fill="#ffde59" d="M 307.402344 22.535156 L 410.179688 22.535156 L 410.179688 42.003906 L 307.402344 42.003906 Z M 307.402344 22.535156 " fill-opacity="1" fill-rule="nonzero"/></g></g><g clip-path="url(#0163ba0d5b)"><g clip-path="url(#ad786ec18c)"><path fill="#00bf63" d="M 307.402344 38.359375 L 433.789062 38.359375 L 433.789062 57.828125 L 307.402344 57.828125 Z M 307.402344 38.359375 " fill-opacity="1" fill-rule="nonzero"/></g></g><g clip-path="url(#44079557b9)"><g clip-path="url(#13fe6549ec)"><path fill="#00bf63" d="M 331.839844 52.695312 L 347.625 52.695312 L 347.625 62.964844 L 331.839844 62.964844 Z M 331.839844 52.695312 " fill-opacity="1" fill-rule="nonzero"/></g></g><g clip-path="url(#2219f80a56)"><g clip-path="url(#317240306a)"><path fill="#ffde59" d="M 320.964844 33.226562 L 336.75 33.226562 L 336.75 43.492188 L 320.964844 43.492188 Z M 320.964844 33.226562 " fill-opacity="1" fill-rule="nonzero"/></g></g><g clip-path="url(#0b133cda69)"><g clip-path="url(#1ee82d67a4)"><path fill="#00bf63" d="M 331.839844 112.746094 L 369.742188 112.746094 L 369.742188 132.21875 L 331.839844 132.21875 Z M 331.839844 112.746094 " fill-opacity="1" fill-rule="nonzero"/></g></g><g clip-path="url(#b15f2296c2)"><g clip-path="url(#c3d2e44377)"><path fill="#67abeb" d="M 321.546875 75.863281 L 400.558594 75.863281 L 400.558594 95.332031 L 321.546875 95.332031 Z M 321.546875 75.863281 " fill-opacity="1" fill-rule="nonzero"/></g></g><g clip-path="url(#3ea91fa923)"><g clip-path="url(#0e72363f9f)"><path fill="#5e17eb" d="M 321.546875 94.824219 L 400.558594 94.824219 L 400.558594 114.296875 L 321.546875 114.296875 Z M 321.546875 94.824219 " fill-opacity="1" fill-rule="nonzero"/></g></g><g clip-path="url(#a3fb662106)"><g clip-path="url(#1bdb9df383)"><path fill="#5e17eb" d="M 339.730469 108.65625 L 355.515625 108.65625 L 355.515625 118.921875 L 339.730469 118.921875 Z M 339.730469 108.65625 " fill-opacity="1" fill-rule="nonzero"/></g></g><g clip-path="url(#a4706cf3f5)"><g clip-path="url(#b76c886e07)"><path fill="#67abeb" d="M 339.730469 89.691406 L 355.515625 89.691406 L 355.515625 99.960938 L 339.730469 99.960938 Z M 339.730469 89.691406 " fill-opacity="1" fill-rule="nonzero"/></g></g><g clip-path="url(#0ba75b7922)"><g clip-path="url(#112de7e5db)"><path fill="#ff66c4" d="M 339.730469 70.222656 L 355.515625 70.222656 L 355.515625 80.488281 L 339.730469 80.488281 Z M 339.730469 70.222656 " fill-opacity="1" fill-rule="nonzero"/></g></g><path stroke-linecap="butt" transform="matrix(0.746652, 0, 0, 0.746652, 17.010904, 14.109257)" fill="none" stroke-linejoin="miter" d="M 172.683467 74.766233 C 178.32846 74.766233 179.741016 73.719895 179.741016 69.435141 C 179.741016 59.191493 176.816501 49.648892 172.992136 47.362643 C 177.998863 40.441118 179.992137 35.999414 179.992137 31.379832 C 179.992137 23.448591 173.478683 19.163837 161.241762 19.163837 C 155.209624 19.163837 150.124422 20.346199 149.078084 22.015108 C 148.382269 23.118994 148.131148 25.1175 148.131148 28.455318 C 148.131148 42.434392 147.587052 56.324528 147.587052 70.308834 C 147.587052 75.001659 153.054168 74.766233 156.391986 74.766233 C 161.320237 74.766233 160.52502 70.073408 160.52502 66.348445 C 160.52502 63.633198 159.729803 53.316306 163.936082 53.316306 C 169.115454 53.316306 166.572853 73.254275 168.320238 74.206442 C 169.424124 74.844708 171.401703 74.766233 172.683467 74.766233 Z M 160.598264 45.77221 C 159.185708 45.77221 158.390491 44.417202 158.390491 41.874601 C 158.390491 39.79762 158.060894 31.149638 159.415902 29.559204 C 159.980925 28.994182 160.854617 28.763987 162.188697 28.763987 C 165.683466 28.763987 167.912166 30.840968 167.912166 34.095079 C 167.912166 39.488951 163.936082 45.77221 160.598264 45.77221 Z M 181.509327 53.159355 C 181.509327 61.425425 184.046696 71.177294 186.741016 73.254275 C 189.053423 75.001659 192.056413 75.7184 197.314261 75.7184 C 208.504845 75.7184 212.245503 70.151883 212.245503 53.159355 C 212.245503 39.253525 206.605741 32.02333 195.802302 32.02333 C 185.872556 32.02333 181.509327 38.458308 181.509327 53.159355 Z M 197.136383 43.773704 C 201.520539 43.773704 201.520539 52.290895 201.520539 55.215409 C 201.520539 57.993436 201.907684 66.018848 197.858356 66.018848 C 193.259701 66.018848 193.259701 57.993436 193.259701 54.828264 C 193.259701 51.882823 192.621435 43.773704 197.136383 43.773704 Z M 221.536983 18.447096 C 219.94655 18.447096 216.608732 18.269218 215.347894 19.242312 C 214.380032 19.938127 213.584815 37.181776 213.584815 57.679535 C 213.584815 60.143661 213.50634 75.001659 214.631153 76.356667 C 215.504845 77.387309 218.685712 78.025576 223.436086 78.025576 C 225.178239 78.025576 225.664786 77.460553 225.664786 75.388804 C 225.664786 72.945605 225.507835 70.382077 225.434592 67.923183 C 228.688703 71.899267 232.978688 74.127967 237.420392 74.127967 C 243.217104 74.127967 246.089302 69.58686 246.089302 59.98671 C 246.089302 44.820042 242.421888 36.63768 235.673008 36.63768 C 232.261947 36.63768 228.516057 38.536783 225.277641 42.183271 C 225.821737 35.669817 226.051931 29.093584 226.616954 22.574899 C 226.616954 22.496423 226.616954 22.402253 226.616954 22.323778 L 226.695429 21.858157 C 226.695429 18.834241 223.995877 18.447096 221.536983 18.447096 Z M 230.823232 62.372361 C 227.490646 62.372361 224.71785 58.323033 224.71785 53.394781 C 224.71785 49.826769 226.460003 47.519594 229.311274 47.519594 C 232.649092 47.519594 235.594533 51.882823 235.594533 56.962794 C 235.594533 60.222136 233.773905 62.372361 230.823232 62.372361 Z M 254.109482 25.1175 C 254.575102 26.864884 258.781381 28.763987 260.45029 28.376842 C 262.678989 27.81182 267.837435 19.629457 267.298571 17.400758 C 266.812024 15.496423 262.83594 13.267723 261.088556 13.75427 C 259.424878 14.235586 253.858361 24.165332 254.109482 25.1175 Z M 244.818001 53.159355 C 244.818001 61.425425 247.360602 71.177294 250.054923 73.254275 C 252.362098 75.001659 255.370319 75.7184 260.622935 75.7184 C 271.813519 75.7184 275.559409 70.151883 275.559409 53.159355 C 275.559409 39.253525 269.914416 32.02333 259.110977 32.02333 C 249.18123 32.02333 244.818001 38.458308 244.818001 53.159355 Z M 260.45029 43.773704 C 264.834445 43.773704 264.834445 52.290895 264.834445 55.215409 C 264.834445 57.993436 265.22159 66.018848 261.167031 66.018848 C 256.573608 66.018848 256.573608 57.993436 256.573608 54.828264 C 256.573608 51.882823 255.93011 43.773704 260.45029 43.773704 Z M 287.074357 16.935137 C 284.207392 16.935137 282.072862 17.730354 280.948049 19.320788 C 280.712623 19.629457 280.639379 27.890295 280.639379 34.25203 C 279.436091 34.25203 278.253729 34.330505 276.992892 34.330505 C 273.812025 34.330505 274.042219 36.465034 274.042219 38.923928 C 274.042219 41.874601 274.837436 43.156365 276.663295 43.156365 C 277.144611 43.156365 278.656569 42.978488 280.639379 42.669818 L 280.639379 53.159355 C 280.639379 55.293885 280.639379 73.489701 281.026524 74.436637 C 281.66479 75.875351 283.49065 76.592093 286.666286 76.592093 C 291.285867 76.592093 292.311279 75.639925 292.311279 71.585366 C 292.311279 67.687757 291.829963 63.884319 291.594537 59.98671 C 291.128917 52.599565 290.877796 46.488951 290.720845 41.15786 C 294.288857 40.592837 297.082579 40.048742 297.23953 39.897023 C 297.877796 39.253525 298.113222 38.458308 298.113222 37.432897 C 298.113222 34.40898 297.161055 33.048741 295.01083 33.048741 C 293.49364 33.048741 292.081084 33.127216 290.569126 33.226618 C 290.569126 31.866379 290.569126 30.511372 290.569126 29.172059 C 290.569126 26.456812 290.569126 23.684017 290.255225 20.911221 C 289.925628 17.882073 289.287362 16.935137 287.074357 16.935137 Z M 297.945808 23.914211 C 297.945808 27.81182 299.609485 30.762493 301.921892 30.762493 C 307.875555 30.762493 309.230562 29.559204 309.230562 24.071162 C 309.230562 19.629457 308.205151 18.117499 305.254478 18.117499 C 300.331459 18.117499 297.945808 20.037529 297.945808 23.914211 Z M 310.334449 56.418698 C 310.334449 48.46653 309.638634 38.693734 308.921893 37.589847 C 307.875555 35.999414 306.300816 35.277441 303.74252 35.277441 C 299.22234 35.277441 298.275405 36.559205 298.275405 42.512867 C 298.275405 51.647397 299.22234 70.9471 299.787363 71.972511 C 300.404702 73.254275 301.199919 73.719895 303.119949 73.719895 C 303.43385 73.719895 303.841922 73.64142 304.229067 73.64142 C 308.435346 73.33275 309.387513 72.380583 309.868829 67.844708 C 310.18273 64.679536 310.334449 61.174304 310.334449 56.418698 Z M 339.574361 63.403003 C 339.574361 58.788653 337.675258 54.985215 335.289608 54.985215 C 331.543718 54.985215 328.540728 57.119744 328.540728 59.834991 C 328.540728 61.326023 329.335945 64.758011 326.871819 64.758011 C 324.873314 64.758011 322.895735 57.993436 322.895735 51.396276 C 322.895735 46.954572 323.999622 43.465035 325.359861 43.465035 C 328.383778 43.465035 326.155078 50.444109 329.880041 50.444109 C 332.825482 50.444109 336.801566 48.15786 336.801566 46.394781 C 336.801566 45.442613 335.849399 42.031552 334.724585 38.772209 C 333.060908 34.095079 331.078098 32.253524 327.180489 32.253524 C 316.534001 32.253524 311.935346 37.663091 311.935346 50.135439 C 311.935346 53.860402 312.400966 57.75801 313.274658 61.577144 C 315.430114 70.711674 320.353134 74.358161 330.361356 74.358161 C 336.1633 74.358161 339.574361 70.308834 339.574361 63.403003 Z M 362.782136 38.615259 C 361.348653 36.072658 357.294094 34.173554 353.239534 34.173554 C 344.18348 34.173554 338.868083 42.826769 338.868083 57.679535 C 338.868083 67.049491 343.309788 73.971016 349.514572 73.971016 C 354.751493 73.971016 360.066889 67.609282 361.191702 59.98671 C 360.940581 62.450836 360.862106 65.223631 360.862106 68.404499 C 360.862106 73.562944 362.374064 72.945605 366.737293 72.945605 C 370.713377 72.945605 372.460762 71.585366 372.460762 68.639925 C 372.460762 57.449341 371.430119 46.23783 370.713377 35.125722 C 370.634902 33.535288 370.561658 31.944855 368.814274 31.306588 C 368.249252 31.071162 367.454035 31.071162 366.915171 31.071162 C 363.886023 31.071162 362.531015 32.332 362.531015 35.434391 C 362.531015 36.559205 362.682734 37.589847 362.782136 38.615259 Z M 353.548204 60.065186 C 349.828473 60.065186 349.980192 54.655619 349.980192 52.034542 C 349.980192 47.111522 351.18348 44.490446 353.396485 44.490446 C 356.263451 44.490446 357.853885 47.033047 357.853885 51.647397 C 357.853885 56.654124 356.111732 60.065186 353.548204 60.065186 Z M 353.548204 60.065186 " stroke="#ffffff" stroke-width="13.50497" stroke-opacity="1" stroke-miterlimit="4"/><g clip-path="url(#9ef6346649)"><path stroke-linecap="butt" transform="matrix(0.746652, 0, 0, 0.746652, 17.010904, 14.109257)" fill="none" stroke-linejoin="miter" d="M 269.835941 151.185521 C 274.450291 151.358167 276.1192 150.641426 276.349394 147.612278 C 276.349394 146.974011 276.349394 146.25727 276.197675 145.153383 C 275.480933 139.759512 273.8905 130.624982 274.277645 125.524084 C 274.277645 125.058464 275.072862 124.979989 276.019797 124.979989 C 278.018303 124.979989 280.948049 125.367134 281.120695 123.855176 C 281.434596 119.026326 280.482429 115.285668 278.735044 115.207193 C 277.458512 115.128717 276.197675 115.845459 274.915911 115.766984 C 273.655074 115.688508 273.016808 112.334995 273.403953 107.741572 C 273.655074 104.482229 274.450291 103.530062 276.663295 103.687013 C 276.914416 103.687013 277.223086 103.765488 277.458512 103.765488 L 278.97047 104.095084 C 279.27914 104.095084 279.530261 104.168328 279.765687 104.168328 C 281.915912 104.246803 282.946554 103.200465 283.176749 100.506145 C 283.663296 93.908985 282.789604 92.397027 277.788109 92.009882 C 269.040724 91.450091 264.520544 91.057714 263.725327 101.453081 C 262.678989 115.285668 263.395731 129.191499 263.395731 142.919452 C 263.395731 147.539034 264.677495 150.950095 269.835941 151.185521 Z M 292.551936 101.709434 C 293.038483 103.451587 297.244762 105.355921 298.913671 104.963545 C 301.126675 104.403754 306.300816 96.221392 305.741026 93.98746 C 305.254478 92.088357 301.299321 89.859657 299.536242 90.340973 C 297.867333 90.806593 292.321742 100.73634 292.551936 101.709434 Z M 305.432356 113.616759 C 303.993641 111.074158 299.939082 109.175055 295.889754 109.175055 C 286.828468 109.175055 281.518303 117.823038 281.518303 132.681036 C 281.518303 142.04576 285.960008 148.972517 292.164791 148.972517 C 297.401712 148.972517 302.717109 142.610782 303.841922 134.988211 C 303.585569 137.452337 303.512326 140.225132 303.512326 143.405999 C 303.512326 148.564445 305.024284 147.941874 309.387513 147.941874 C 313.363597 147.941874 315.10575 146.586866 315.10575 143.636194 C 315.10575 132.44561 314.080339 121.239331 313.363597 110.127222 C 313.285122 108.536789 313.206646 106.946355 311.459262 106.302857 C 310.899471 106.072663 310.104255 106.072663 309.560159 106.072663 C 306.536242 106.072663 305.176003 107.3335 305.176003 110.435892 C 305.176003 111.560705 305.332954 112.586116 305.432356 113.616759 Z M 296.198424 135.066686 C 292.473461 135.066686 292.630412 129.657119 292.630412 127.036043 C 292.630412 122.113023 293.8337 119.491946 296.041473 119.491946 C 298.913671 119.491946 300.504104 122.034548 300.504104 126.648898 C 300.504104 131.650393 298.75672 135.066686 296.198424 135.066686 Z M 343.231312 138.404504 C 343.231312 133.784922 341.332209 129.986716 338.946559 129.986716 C 335.200669 129.986716 332.192448 132.116013 332.192448 134.83126 C 332.192448 136.327523 332.987664 139.759512 330.52877 139.759512 C 328.530265 139.759512 326.552686 132.989705 326.552686 126.397777 C 326.552686 121.956072 327.656573 118.466535 329.016812 118.466535 C 332.040729 118.466535 329.812029 125.445609 333.53176 125.445609 C 336.482433 125.445609 340.458517 123.159361 340.458517 121.39105 C 340.458517 120.444114 339.50635 117.027821 338.381536 113.768478 C 336.712627 109.096579 334.735049 107.255025 330.83744 107.255025 C 320.190952 107.255025 315.592297 112.664592 315.592297 125.136939 C 315.592297 128.861902 316.057917 132.759511 316.931609 136.578644 C 319.081834 145.713174 324.010085 149.359662 334.018307 149.359662 C 339.815019 149.359662 343.231312 145.305102 343.231312 138.404504 Z M 344.811283 98.915712 C 344.811283 102.81332 346.480192 105.758762 348.787367 105.758762 C 354.741029 105.758762 356.101269 104.560705 356.101269 99.067431 C 356.101269 94.630958 355.070626 93.113768 352.125185 93.113768 C 347.196933 93.113768 344.811283 95.033798 344.811283 98.915712 Z M 357.205155 131.420199 C 357.205155 123.468031 356.50934 113.695235 355.792599 112.586116 C 354.741029 110.995683 353.171522 110.278941 350.613226 110.278941 C 346.093047 110.278941 345.140879 111.560705 345.140879 117.514368 C 345.140879 126.648898 346.093047 145.9486 346.652837 146.974011 C 347.275408 148.255775 348.070625 148.721396 349.990655 148.721396 C 350.299325 148.721396 350.707397 148.64292 351.094542 148.64292 C 355.306052 148.334251 356.252988 147.382083 356.739535 142.840977 C 357.048204 139.681036 357.205155 136.170573 357.205155 131.420199 Z M 371.995141 132.194489 C 371.995141 118.152634 370.948803 94.395532 370.247757 93.52184 C 369.45254 92.496429 368.735799 92.166832 367.22384 92.166832 C 362.295589 92.166832 360.396486 94.317057 360.396486 99.632453 C 360.396486 107.663097 360.31801 115.923934 360.31801 124.106297 C 360.31801 128.317807 360.066889 147.769228 362.065395 150.233354 C 362.782136 151.107046 365.403212 151.666837 368.406202 151.666837 C 369.279894 151.666837 369.766442 151.436643 370.561658 150.719901 C 371.356875 149.997928 371.995141 140.941873 371.995141 132.194489 Z M 371.995141 132.194489 " stroke="#ffffff" stroke-width="13.50497" stroke-opacity="1" stroke-miterlimit="4"/></g><g fill="#1c72c2" fill-opacity="1"><g transform="translate(124.353756, 70.108136)"><g><path d="M 21.589844 -0.179688 C 25.800781 -0.179688 26.871094 -0.949219 26.871094 -4.152344 C 26.871094 -11.804688 24.675781 -18.921875 21.828125 -20.640625 C 25.5625 -25.800781 27.046875 -29.125 27.046875 -32.5625 C 27.046875 -38.496094 22.183594 -41.699219 13.050781 -41.699219 C 8.542969 -41.699219 4.746094 -40.808594 3.972656 -39.5625 C 3.441406 -38.730469 3.261719 -37.25 3.261719 -34.757812 C 3.261719 -24.320312 2.847656 -13.9375 2.847656 -3.5 C 2.847656 0 6.941406 -0.179688 9.429688 -0.179688 C 13.109375 -0.179688 12.515625 -3.675781 12.515625 -6.464844 C 12.515625 -8.480469 11.921875 -16.191406 15.066406 -16.191406 C 18.921875 -16.191406 17.023438 -1.304688 18.328125 -0.59375 C 19.160156 -0.117188 20.640625 -0.179688 21.589844 -0.179688 Z M 12.574219 -21.828125 C 11.507812 -21.828125 10.914062 -22.835938 10.914062 -24.734375 C 10.914062 -26.277344 10.675781 -32.742188 11.683594 -33.925781 C 12.101562 -34.34375 12.753906 -34.519531 13.761719 -34.519531 C 16.371094 -34.519531 18.03125 -32.980469 18.03125 -30.546875 C 18.03125 -26.511719 15.066406 -21.828125 12.574219 -21.828125 Z M 12.574219 -21.828125 "/></g></g></g><g fill="#1c72c2" fill-opacity="1"><g transform="translate(150.332308, 70.108136)"><g><path d="M 2.195312 -16.3125 C 2.195312 -10.144531 4.09375 -2.847656 6.109375 -1.304688 C 7.828125 0 10.082031 0.535156 14 0.535156 C 22.363281 0.535156 25.148438 -3.617188 25.148438 -16.3125 C 25.148438 -26.691406 20.9375 -32.089844 12.871094 -32.089844 C 5.457031 -32.089844 2.195312 -27.285156 2.195312 -16.3125 Z M 13.878906 -23.308594 C 17.140625 -23.308594 17.140625 -16.964844 17.140625 -14.769531 C 17.140625 -12.691406 17.4375 -6.703125 14.414062 -6.703125 C 10.972656 -6.703125 10.972656 -12.691406 10.972656 -15.066406 C 10.972656 -17.261719 10.5 -23.308594 13.878906 -23.308594 Z M 13.878906 -23.308594 "/></g></g></g><g fill="#1c72c2" fill-opacity="1"><g transform="translate(173.760435, 70.108136)"><g><path d="M 8.660156 -42.230469 C 7.472656 -42.230469 4.980469 -42.351562 4.035156 -41.636719 C 3.320312 -41.105469 2.726562 -28.234375 2.726562 -12.929688 C 2.726562 -11.089844 2.667969 0 3.5 1.007812 C 4.152344 1.78125 6.523438 2.253906 10.082031 2.253906 C 11.386719 2.253906 11.746094 1.839844 11.746094 0.296875 C 11.746094 -1.542969 11.625 -3.441406 11.566406 -5.277344 C 14 -2.3125 17.199219 -0.652344 20.523438 -0.652344 C 24.851562 -0.652344 26.988281 -4.035156 26.988281 -11.210938 C 26.988281 -22.539062 24.257812 -28.648438 19.21875 -28.648438 C 16.667969 -28.648438 13.878906 -27.226562 11.449219 -24.496094 C 11.863281 -29.359375 12.039062 -34.285156 12.457031 -39.148438 C 12.457031 -39.207031 12.457031 -39.265625 12.457031 -39.324219 L 12.515625 -39.679688 C 12.515625 -41.933594 10.5 -42.230469 8.660156 -42.230469 Z M 15.597656 -9.429688 C 13.109375 -9.429688 11.03125 -12.457031 11.03125 -16.132812 C 11.03125 -18.800781 12.335938 -20.523438 14.472656 -20.523438 C 16.964844 -20.523438 19.160156 -17.261719 19.160156 -13.464844 C 19.160156 -11.03125 17.792969 -9.429688 15.597656 -9.429688 Z M 15.597656 -9.429688 "/></g></g></g><g fill="#1c72c2" fill-opacity="1"><g transform="translate(197.603748, 70.108136)"><g><path d="M 9.132812 -37.25 C 9.492188 -35.945312 12.632812 -34.519531 13.878906 -34.816406 C 15.539062 -35.234375 19.394531 -41.34375 18.980469 -43.003906 C 18.625 -44.425781 15.660156 -46.085938 14.355469 -45.730469 C 13.109375 -45.375 8.957031 -37.960938 9.132812 -37.25 Z M 2.195312 -16.3125 C 2.195312 -10.144531 4.09375 -2.847656 6.109375 -1.304688 C 7.828125 0 10.082031 0.535156 14 0.535156 C 22.363281 0.535156 25.148438 -3.617188 25.148438 -16.3125 C 25.148438 -26.691406 20.9375 -32.089844 12.871094 -32.089844 C 5.457031 -32.089844 2.195312 -27.285156 2.195312 -16.3125 Z M 13.878906 -23.308594 C 17.140625 -23.308594 17.140625 -16.964844 17.140625 -14.769531 C 17.140625 -12.691406 17.4375 -6.703125 14.414062 -6.703125 C 10.972656 -6.703125 10.972656 -12.691406 10.972656 -15.066406 C 10.972656 -17.261719 10.5 -23.308594 13.878906 -23.308594 Z M 13.878906 -23.308594 "/></g></g></g><g fill="#1c72c2" fill-opacity="1"><g transform="translate(221.031871, 70.108136)"><g><path d="M 10.320312 -43.359375 C 8.183594 -43.359375 6.582031 -42.765625 5.753906 -41.578125 C 5.574219 -41.34375 5.515625 -35.171875 5.515625 -30.429688 C 4.625 -30.429688 3.738281 -30.367188 2.789062 -30.367188 C 0.414062 -30.367188 0.59375 -28.765625 0.59375 -26.929688 C 0.59375 -24.734375 1.1875 -23.785156 2.550781 -23.785156 C 2.90625 -23.785156 4.035156 -23.902344 5.515625 -24.140625 L 5.515625 -16.3125 C 5.515625 -14.710938 5.515625 -1.128906 5.8125 -0.414062 C 6.289062 0.652344 7.652344 1.1875 10.023438 1.1875 C 13.464844 1.1875 14.234375 0.472656 14.234375 -2.550781 C 14.234375 -5.457031 13.878906 -8.304688 13.703125 -11.210938 C 13.34375 -16.726562 13.167969 -21.292969 13.050781 -25.269531 C 15.71875 -25.683594 17.792969 -26.097656 17.914062 -26.214844 C 18.386719 -26.691406 18.566406 -27.285156 18.566406 -28.054688 C 18.566406 -30.308594 17.855469 -31.316406 16.253906 -31.316406 C 15.125 -31.316406 14.058594 -31.257812 12.929688 -31.199219 C 12.929688 -32.207031 12.929688 -33.214844 12.929688 -34.222656 C 12.929688 -36.242188 12.929688 -38.316406 12.691406 -40.394531 C 12.457031 -42.648438 11.980469 -43.359375 10.320312 -43.359375 Z M 10.320312 -43.359375 "/></g></g></g><g fill="#1c72c2" fill-opacity="1"><g transform="translate(236.096985, 70.108136)"><g><path d="M 3.382812 -38.140625 C 3.382812 -35.234375 4.625 -33.039062 6.347656 -33.039062 C 10.796875 -33.039062 11.804688 -33.925781 11.804688 -38.019531 C 11.804688 -41.34375 11.03125 -42.46875 8.835938 -42.46875 C 5.160156 -42.46875 3.382812 -41.046875 3.382812 -38.140625 Z M 12.632812 -13.878906 C 12.632812 -19.8125 12.101562 -27.105469 11.566406 -27.9375 C 10.796875 -29.125 9.609375 -29.65625 7.710938 -29.65625 C 4.328125 -29.65625 3.617188 -28.707031 3.617188 -24.257812 C 3.617188 -17.4375 4.328125 -3.023438 4.746094 -2.253906 C 5.21875 -1.304688 5.8125 -0.949219 7.234375 -0.949219 C 7.472656 -0.949219 7.769531 -1.007812 8.066406 -1.007812 C 11.210938 -1.246094 11.921875 -1.957031 12.277344 -5.339844 C 12.515625 -7.710938 12.632812 -10.320312 12.632812 -13.878906 Z M 12.632812 -13.878906 "/></g></g></g><g fill="#1c72c2" fill-opacity="1"><g transform="translate(248.196489, 70.108136)"><g><path d="M 22.363281 -8.660156 C 22.363281 -12.101562 20.9375 -14.945312 19.160156 -14.945312 C 16.371094 -14.945312 14.117188 -13.34375 14.117188 -11.328125 C 14.117188 -10.203125 14.710938 -7.652344 12.871094 -7.652344 C 11.386719 -7.652344 9.90625 -12.691406 9.90625 -17.617188 C 9.90625 -20.9375 10.734375 -23.546875 11.746094 -23.546875 C 14 -23.546875 12.335938 -18.328125 15.125 -18.328125 C 17.320312 -18.328125 20.285156 -20.046875 20.285156 -21.351562 C 20.285156 -22.066406 19.574219 -24.617188 18.742188 -27.046875 C 17.496094 -30.546875 16.015625 -31.910156 13.109375 -31.910156 C 5.160156 -31.910156 1.71875 -27.878906 1.71875 -18.566406 C 1.71875 -15.777344 2.074219 -12.871094 2.726562 -10.023438 C 4.328125 -3.203125 8.007812 -0.472656 15.480469 -0.472656 C 19.8125 -0.472656 22.363281 -3.5 22.363281 -8.660156 Z M 22.363281 -8.660156 "/></g></g></g><g fill="#1c72c2" fill-opacity="1"><g transform="translate(268.362442, 70.108136)"><g><path d="M 19.515625 -27.164062 C 18.445312 -29.0625 15.421875 -30.488281 12.398438 -30.488281 C 5.636719 -30.488281 1.660156 -24.023438 1.660156 -12.929688 C 1.660156 -5.929688 4.980469 -0.769531 9.609375 -0.769531 C 13.523438 -0.769531 17.496094 -5.515625 18.328125 -11.210938 C 18.148438 -9.371094 18.089844 -7.296875 18.089844 -4.921875 C 18.089844 -1.066406 19.21875 -1.542969 22.480469 -1.542969 C 25.445312 -1.542969 26.75 -2.550781 26.75 -4.746094 C 26.75 -13.109375 25.980469 -21.472656 25.445312 -29.777344 C 25.386719 -30.960938 25.328125 -32.148438 24.023438 -32.621094 C 23.605469 -32.800781 23.015625 -32.800781 22.597656 -32.800781 C 20.34375 -32.800781 19.335938 -31.851562 19.335938 -29.539062 C 19.335938 -28.707031 19.453125 -27.9375 19.515625 -27.164062 Z M 12.632812 -11.152344 C 9.847656 -11.152344 9.964844 -15.183594 9.964844 -17.140625 C 9.964844 -20.820312 10.855469 -22.777344 12.515625 -22.777344 C 14.652344 -22.777344 15.835938 -20.878906 15.835938 -17.4375 C 15.835938 -13.703125 14.53125 -11.152344 12.632812 -11.152344 Z M 12.632812 -11.152344 "/></g></g></g><g fill="#1c72c2" fill-opacity="1"><g transform="translate(199.438924, 126.107016)"><g/></g></g><g fill="#ffde59" fill-opacity="1"><g transform="translate(210.47537, 126.107016)"><g><path d="M 8.007812 0.890625 C 11.449219 1.007812 12.691406 0.472656 12.871094 -1.78125 C 12.871094 -2.253906 12.871094 -2.789062 12.753906 -3.617188 C 12.21875 -7.652344 11.03125 -14.472656 11.328125 -18.269531 C 11.328125 -18.625 11.921875 -18.683594 12.632812 -18.683594 C 14.117188 -18.683594 16.3125 -18.386719 16.429688 -19.515625 C 16.667969 -23.132812 15.957031 -25.921875 14.652344 -25.980469 C 13.703125 -26.039062 12.753906 -25.503906 11.804688 -25.5625 C 10.855469 -25.625 10.378906 -28.113281 10.675781 -31.554688 C 10.855469 -33.988281 11.449219 -34.699219 13.109375 -34.578125 C 13.285156 -34.578125 13.523438 -34.519531 13.703125 -34.519531 L 14.828125 -34.285156 C 15.066406 -34.285156 15.242188 -34.222656 15.421875 -34.222656 C 17.023438 -34.164062 17.792969 -34.9375 17.972656 -36.953125 C 18.328125 -41.875 17.675781 -43.003906 13.9375 -43.300781 C 7.414062 -43.714844 4.035156 -44.011719 3.441406 -36.242188 C 2.667969 -25.921875 3.203125 -15.539062 3.203125 -5.277344 C 3.203125 -1.839844 4.152344 0.710938 8.007812 0.890625 Z M 8.007812 0.890625 "/></g></g></g><g fill="#ffde59" fill-opacity="1"><g transform="translate(225.540487, 126.107016)"><g><path d="M 9.90625 -36.0625 C 10.261719 -34.757812 13.40625 -33.335938 14.652344 -33.632812 C 16.3125 -34.046875 20.167969 -40.15625 19.75 -41.816406 C 19.394531 -43.238281 16.429688 -44.902344 15.125 -44.542969 C 13.878906 -44.1875 9.726562 -36.773438 9.90625 -36.0625 Z M 19.515625 -27.164062 C 18.445312 -29.0625 15.421875 -30.488281 12.398438 -30.488281 C 5.636719 -30.488281 1.660156 -24.023438 1.660156 -12.929688 C 1.660156 -5.929688 4.980469 -0.769531 9.609375 -0.769531 C 13.523438 -0.769531 17.496094 -5.515625 18.328125 -11.210938 C 18.148438 -9.371094 18.089844 -7.296875 18.089844 -4.921875 C 18.089844 -1.066406 19.21875 -1.542969 22.480469 -1.542969 C 25.445312 -1.542969 26.75 -2.550781 26.75 -4.746094 C 26.75 -13.109375 25.980469 -21.472656 25.445312 -29.777344 C 25.386719 -30.960938 25.328125 -32.148438 24.023438 -32.621094 C 23.605469 -32.800781 23.015625 -32.800781 22.597656 -32.800781 C 20.34375 -32.800781 19.335938 -31.851562 19.335938 -29.539062 C 19.335938 -28.707031 19.453125 -27.9375 19.515625 -27.164062 Z M 12.632812 -11.152344 C 9.847656 -11.152344 9.964844 -15.183594 9.964844 -17.140625 C 9.964844 -20.820312 10.855469 -22.777344 12.515625 -22.777344 C 14.652344 -22.777344 15.835938 -20.878906 15.835938 -17.4375 C 15.835938 -13.703125 14.53125 -11.152344 12.632812 -11.152344 Z M 12.632812 -11.152344 "/></g></g></g><g fill="#ffde59" fill-opacity="1"><g transform="translate(250.925919, 126.107016)"><g><path d="M 22.363281 -8.660156 C 22.363281 -12.101562 20.9375 -14.945312 19.160156 -14.945312 C 16.371094 -14.945312 14.117188 -13.34375 14.117188 -11.328125 C 14.117188 -10.203125 14.710938 -7.652344 12.871094 -7.652344 C 11.386719 -7.652344 9.90625 -12.691406 9.90625 -17.617188 C 9.90625 -20.9375 10.734375 -23.546875 11.746094 -23.546875 C 14 -23.546875 12.335938 -18.328125 15.125 -18.328125 C 17.320312 -18.328125 20.285156 -20.046875 20.285156 -21.351562 C 20.285156 -22.066406 19.574219 -24.617188 18.742188 -27.046875 C 17.496094 -30.546875 16.015625 -31.910156 13.109375 -31.910156 C 5.160156 -31.910156 1.71875 -27.878906 1.71875 -18.566406 C 1.71875 -15.777344 2.074219 -12.871094 2.726562 -10.023438 C 4.328125 -3.203125 8.007812 -0.472656 15.480469 -0.472656 C 19.8125 -0.472656 22.363281 -3.5 22.363281 -8.660156 Z M 22.363281 -8.660156 "/></g></g></g><g fill="#ffde59" fill-opacity="1"><g transform="translate(271.091878, 126.107016)"><g><path d="M 3.382812 -38.140625 C 3.382812 -35.234375 4.625 -33.039062 6.347656 -33.039062 C 10.796875 -33.039062 11.804688 -33.925781 11.804688 -38.019531 C 11.804688 -41.34375 11.03125 -42.46875 8.835938 -42.46875 C 5.160156 -42.46875 3.382812 -41.046875 3.382812 -38.140625 Z M 12.632812 -13.878906 C 12.632812 -19.8125 12.101562 -27.105469 11.566406 -27.9375 C 10.796875 -29.125 9.609375 -29.65625 7.710938 -29.65625 C 4.328125 -29.65625 3.617188 -28.707031 3.617188 -24.257812 C 3.617188 -17.4375 4.328125 -3.023438 4.746094 -2.253906 C 5.21875 -1.304688 5.8125 -0.949219 7.234375 -0.949219 C 7.472656 -0.949219 7.769531 -1.007812 8.066406 -1.007812 C 11.210938 -1.246094 11.921875 -1.957031 12.277344 -5.339844 C 12.515625 -7.710938 12.632812 -10.320312 12.632812 -13.878906 Z M 12.632812 -13.878906 "/></g></g></g><g fill="#ffde59" fill-opacity="1"><g transform="translate(283.191382, 126.107016)"><g><path d="M 11.566406 -13.285156 C 11.566406 -23.785156 10.796875 -41.519531 10.261719 -42.171875 C 9.667969 -42.941406 9.132812 -43.179688 8.007812 -43.179688 C 4.328125 -43.179688 2.90625 -41.578125 2.90625 -37.605469 C 2.90625 -31.613281 2.847656 -25.445312 2.847656 -19.335938 C 2.847656 -16.191406 2.667969 -1.660156 4.152344 0.179688 C 4.6875 0.832031 6.644531 1.246094 8.898438 1.246094 C 9.550781 1.246094 9.90625 1.066406 10.5 0.535156 C 11.089844 0 11.566406 -6.761719 11.566406 -13.285156 Z M 11.566406 -13.285156 "/></g></g></g></svg>